<?xml version="1.0" encoding="UTF-8" standalone="yes"?>
<!DOCTYPE svg PUBLIC "-//W3C//DTD SVG 1.1//EN" "http://www.w3.org/Graphics/SVG/1.1/DTD/svg11.dtd">

<svg width="418" height="435" viewBox="0 0 418 435" xmlns="http://www.w3.org/2000/svg" xmlns:xlink="http://www.w3.org/1999/xlink" version="1.1" baseProfile="full">
    <g transform="scale(1.000000,-1.000000) translate(0,-435)">
        <path d="M 1.000000 1.000000 L 419.000000 1.000000 L 419.000000 436.000000 L 1.000000 436.000000 Z" transform="scale(1.000000,1.000000) translate(-1.000000,-1.000000)" fill="#ffffff" opacity="1.000000"></path>
        <path d="M 74.577562 239.869450 L 1.000000 239.869450 L 1.000000 230.594968 L 62.211585 230.594968 L 62.211585 230.388868 L 1.000000 207.408762 L 1.000000 199.061727 L 62.211585 176.081621 L 62.211585 175.875521 L 1.000000 175.875521 L 1.000000 166.601038 L 74.577562 166.601038 L 74.577562 179.997513 L 12.747678 203.286769 L 74.577562 226.472976 Z M 74.577562 150.113069 L 1.000000 150.113069 L 1.000000 140.838587 L 62.211585 140.838587 L 62.211585 140.632487 L 1.000000 117.652380 L 1.000000 109.305346 L 62.211585 86.325239 L 62.211585 86.119140 L 1.000000 86.119140 L 1.000000 76.844657 L 74.577562 76.844657 L 74.577562 90.241132 L 12.747678 113.530388 L 74.577562 136.716595 Z M 31.399693 47.887662 L 65.715278 35.418635 L 65.715278 35.212536 L 31.399693 22.949609 Z M 74.577562 40.571126 L 1.000000 69.218972 L 1.000000 59.223140 L 23.155708 50.979156 L 23.155708 19.858115 L 1.000000 11.820230 L 1.000000 1.000000 L 74.577562 29.750896 Z" transform="scale(1.000000,1.000000) translate(283.797195,48.560000)" fill="#852e5b" opacity="1.000000"></path>
        <path d="M 92.971900 92.971952 L 1.000000 92.971952 L 1.000000 0.999952 L 92.971900 0.999952 Z M 10.197100 21.429552 L 10.197100 72.542252 L 83.774700 72.542252 L 83.774700 21.738752 L 75.530700 21.738752 L 75.530700 62.752552 L 52.138400 62.752552 L 52.138400 24.521052 L 43.894400 24.521052 L 43.894400 62.752552 L 18.441100 62.752552 L 18.441100 21.429552 Z" transform="scale(1.000000,1.000000) translate(274.600000,292.028048)" fill="#852e5b" opacity="1.000000"></path>
        <path d="M 220.600000 336.440000 L 1.000000 336.440000 L 1.000000 1.000000 L 220.599900 1.000000 Z M 29.200000 158.239900 L 29.199900 321.440000 L 192.400000 321.440000 L 192.400000 158.239900 Z M 112.911800 174.562300 L 114.219600 174.581000 L 115.515200 174.618500 L 116.798600 174.674800 L 118.069900 174.749800 L 119.328900 174.843500 L 120.575800 174.956000 L 121.810500 175.087300 L 123.033000 175.237300 L 124.243300 175.406000 L 125.441400 175.593500 L 126.627400 175.799800 L 127.801100 176.024800 L 128.962700 176.268500 L 130.112100 176.531000 L 131.249300 176.812300 L 132.374300 177.112300 L 133.487100 177.431000 L 134.587700 177.768500 L 135.676100 178.124800 L 136.752400 178.499800 L 137.816400 178.893500 L 138.868300 179.306000 L 139.908000 179.737300 L 140.935500 180.187300 L 141.950800 180.656000 L 142.953900 181.143500 L 143.944900 181.649800 L 144.923600 182.174800 L 145.890200 182.718500 L 146.844600 183.281000 L 147.786800 183.862300 L 148.253300 184.159900 L 148.716400 184.463100 L 149.631400 185.087900 L 150.531400 185.737600 L 151.416400 186.412100 L 152.286400 187.111500 L 153.141400 187.835700 L 153.981400 188.584800 L 154.806400 189.358700 L 155.616400 190.157400 L 156.411400 190.981000 L 157.191400 191.829500 L 157.956400 192.702700 L 158.706400 193.600900 L 159.441400 194.523800 L 160.161400 195.471600 L 160.866400 196.444300 L 161.556400 197.441800 L 162.231400 198.464100 L 162.891400 199.511300 L 163.536400 200.583400 L 164.166400 201.680200 L 164.781400 202.802000 L 165.381400 203.948500 L 165.966400 205.119900 L 166.536400 206.316200 L 167.091400 207.537300 L 167.631400 208.783200 L 168.156400 210.054000 L 168.666400 211.349600 L 169.161400 212.670100 L 169.641400 214.015400 L 170.106400 215.385600 L 170.333300 216.080000 L 140.333300 216.080000 L 140.222700 215.720500 L 139.967700 215.005200 L 139.667700 214.294600 L 139.322700 213.588700 L 138.932700 212.887400 L 138.497700 212.190800 L 138.017700 211.499000 L 137.492700 210.811800 L 136.922700 210.129300 L 136.307700 209.451500 L 135.647700 208.778300 L 134.942700 208.109900 L 134.192700 207.446200 L 133.397700 206.787100 L 132.557700 206.132700 L 131.672700 205.483000 L 131.213300 205.159900 L 130.745500 204.842500 L 129.793000 204.237800 L 128.818000 203.673400 L 127.820500 203.149400 L 126.800500 202.665600 L 125.758000 202.222200 L 124.693000 201.819100 L 123.605500 201.456200 L 122.495500 201.133700 L 121.363000 200.851600 L 120.208000 200.609700 L 119.030500 200.408100 L 117.830500 200.246900 L 116.608000 200.125900 L 115.363000 200.045300 L 114.095500 200.005000 L 113.453300 199.999900 L 113.004900 200.001800 L 112.118000 200.016300 L 111.244300 200.045400 L 110.383700 200.089000 L 109.536200 200.147100 L 108.701800 200.219700 L 107.880500 200.306900 L 107.072400 200.408600 L 106.277400 200.524900 L 105.495500 200.655700 L 104.726800 200.801000 L 103.971200 200.960800 L 103.228700 201.135200 L 102.499300 201.324100 L 101.783000 201.527500 L 101.079900 201.745500 L 100.389900 201.978000 L 99.713000 202.225000 L 99.049300 202.486600 L 98.398700 202.762700 L 97.761200 203.053300 L 97.136800 203.358500 L 96.525500 203.678200 L 95.927400 204.012400 L 95.342400 204.361100 L 94.770500 204.724400 L 94.211800 205.102200 L 93.666200 205.494600 L 93.133700 205.901500 L 92.614300 206.322900 L 92.108000 206.758800 L 91.614900 207.209300 L 91.373300 207.439900 L 91.135000 207.674700 L 90.668600 208.157500 L 90.215800 208.658100 L 89.776500 209.176600 L 89.350900 209.712800 L 88.938900 210.266900 L 88.540500 210.838700 L 88.155600 211.428400 L 87.784400 212.035900 L 87.426700 212.661200 L 87.082600 213.304400 L 86.752200 213.965300 L 86.435300 214.644100 L 86.132000 215.340600 L 85.842300 216.055000 L 85.566200 216.787200 L 85.303700 217.537200 L 85.054800 218.305000 L 84.819500 219.090600 L 84.597800 219.894100 L 84.389700 220.715300 L 84.195100 221.554400 L 84.014200 222.411200 L 83.846900 223.285900 L 83.693100 224.178400 L 83.553000 225.088700 L 83.426400 226.016900 L 83.313400 226.962800 L 83.214000 227.926600 L 83.128300 228.908100 L 83.056100 229.907500 L 82.997500 230.924700 L 82.973300 231.440000 L 172.493300 231.440000 L 172.549100 232.338800 L 172.635300 234.129400 L 172.687800 235.910700 L 172.706600 237.682500 L 172.691600 239.445000 L 172.642800 241.198200 L 172.560300 242.941900 L 172.444100 244.676300 L 172.294100 246.401300 L 172.110300 248.116900 L 171.892800 249.823200 L 171.641600 251.520000 L 171.356600 253.207500 L 171.037800 254.885700 L 170.685300 256.554400 L 170.299100 258.213800 L 170.093300 259.039900 L 169.879200 259.862100 L 169.426400 261.489600 L 168.940700 263.094600 L 168.422300 264.677100 L 167.871100 266.237100 L 167.287000 267.774600 L 166.670100 269.289600 L 166.020400 270.782100 L 165.337900 272.252100 L 164.622600 273.699600 L 163.874500 275.124600 L 163.093600 276.527100 L 162.279800 277.907100 L 161.433200 279.264600 L 160.553900 280.599600 L 159.641700 281.912100 L 159.173300 282.560000 L 158.696700 283.200800 L 157.718900 284.458000 L 156.708200 285.682400 L 155.664800 286.874000 L 154.588600 288.032700 L 153.479500 289.158700 L 152.337600 290.251800 L 151.162900 291.312100 L 149.955400 292.339600 L 148.715100 293.334300 L 147.442000 294.296200 L 146.136100 295.225200 L 144.797300 296.121500 L 143.425700 296.984900 L 142.021400 297.815500 L 140.584200 298.613300 L 139.853300 298.999900 L 139.114300 299.376500 L 137.612400 300.093700 L 136.078700 300.763000 L 134.513000 301.384600 L 132.915500 301.958300 L 131.286200 302.484300 L 129.624900 302.962400 L 127.931800 303.392700 L 126.206800 303.775200 L 124.449900 304.109900 L 122.661200 304.396800 L 120.840500 304.635800 L 118.988000 304.827100 L 117.103700 304.970500 L 115.187400 305.066200 L 113.239300 305.114000 L 112.253300 305.119900 L 111.370700 305.115000 L 109.620400 305.075700 L 107.889800 304.996900 L 106.178900 304.878800 L 104.487600 304.721300 L 102.816100 304.524400 L 101.164200 304.288200 L 99.532000 304.012500 L 97.919500 303.697500 L 96.326700 303.343200 L 94.753600 302.949400 L 93.200100 302.516300 L 91.666400 302.043800 L 90.152300 301.531900 L 88.657900 300.980700 L 87.183200 300.390000 L 86.453300 300.080000 L 85.728900 299.761300 L 84.299300 299.102300 L 82.894900 298.414100 L 81.515800 297.696900 L 80.162100 296.950700 L 78.833600 296.175400 L 77.530500 295.371000 L 76.252700 294.537600 L 75.000200 293.675100 L 73.773000 292.783500 L 72.571100 291.862900 L 71.394600 290.913200 L 70.243300 289.934400 L 69.117400 288.926600 L 68.016800 287.889800 L 66.941400 286.823800 L 66.413300 286.279900 L 65.892000 285.729300 L 64.872000 284.609000 L 63.882000 283.463300 L 62.922000 282.292400 L 61.992000 281.096200 L 61.092000 279.874600 L 60.222000 278.627700 L 59.382000 277.355500 L 58.572000 276.058000 L 57.792000 274.735200 L 57.042000 273.387100 L 56.322000 272.013700 L 55.632000 270.614900 L 54.972000 269.190800 L 54.342000 267.741500 L 53.742000 266.266800 L 53.453300 265.520000 L 53.172700 264.768100 L 52.638400 263.253100 L 52.139600 261.723100 L 51.676500 260.178100 L 51.249000 258.618100 L 50.857100 257.043100 L 50.500900 255.453100 L 50.180200 253.848100 L 49.895200 252.228100 L 49.645900 250.593100 L 49.432100 248.943100 L 49.254000 247.278100 L 49.111500 245.598100 L 49.004600 243.903100 L 48.933400 242.193100 L 48.897700 240.468100 L 48.893300 239.599900 L 48.897600 238.702300 L 48.932300 236.921000 L 49.001700 235.158500 L 49.105700 233.414800 L 49.244500 231.689800 L 49.417900 229.983500 L 49.626100 228.296000 L 49.868900 226.627300 L 50.146400 224.977300 L 50.458600 223.346000 L 50.805400 221.733500 L 51.187000 220.139800 L 51.603200 218.564800 L 52.054200 217.008500 L 52.539800 215.471000 L 53.060100 213.952300 L 53.333300 213.200000 L 53.614400 212.453200 L 54.198500 210.979500 L 54.811600 209.532000 L 55.453800 208.110700 L 56.125000 206.715700 L 56.825400 205.347000 L 57.554700 204.004500 L 58.313200 202.688200 L 59.100700 201.398200 L 59.917200 200.134500 L 60.762900 198.897000 L 61.637500 197.685700 L 62.541300 196.500700 L 63.474100 195.342000 L 64.436000 194.209500 L 65.426900 193.103200 L 65.933300 192.559900 L 66.446800 192.023800 L 67.494900 190.974800 L 68.571200 189.956600 L 69.675500 188.969400 L 70.808000 188.013200 L 71.968700 187.087900 L 73.157400 186.193500 L 74.374300 185.330100 L 75.619300 184.497600 L 76.892400 183.696000 L 78.193700 182.925400 L 79.523000 182.185700 L 80.880500 181.476900 L 82.266200 180.799100 L 83.679900 180.152300 L 85.121800 179.536300 L 85.853300 179.240000 L 86.591100 178.952000 L 88.083600 178.403600 L 89.598600 177.891700 L 91.136100 177.416400 L 92.696100 176.977600 L 94.278600 176.575500 L 95.883600 176.209800 L 97.511100 175.880800 L 99.161100 175.588300 L 100.833600 175.332300 L 102.528600 175.113000 L 104.246100 174.930100 L 105.986100 174.783900 L 107.748600 174.674200 L 109.533600 174.601100 L 111.341100 174.564500 L 112.253300 174.559900 Z M 82.973300 253.039900 L 83.007500 253.493700 L 83.101300 254.423700 L 83.228800 255.383700 L 83.390000 256.373700 L 83.585000 257.393700 L 83.813800 258.443700 L 84.076300 259.523700 L 84.372500 260.633700 L 84.533300 261.200000 L 84.705800 261.768100 L 85.095800 262.893100 L 85.545800 264.003100 L 86.055800 265.098100 L 86.625800 266.178100 L 87.255800 267.243100 L 87.945800 268.293100 L 88.695800 269.328100 L 89.093300 269.840000 L 89.297900 270.093700 L 89.719800 270.593300 L 90.158500 271.082700 L 90.614100 271.561800 L 91.086600 272.030500 L 91.576000 272.489000 L 92.082300 272.937100 L 92.605400 273.374900 L 93.145400 273.802400 L 93.702300 274.219600 L 94.276000 274.626500 L 94.866600 275.023000 L 95.474100 275.409300 L 96.098500 275.785200 L 96.739800 276.150800 L 97.397900 276.506200 L 97.733300 276.680000 L 98.073500 276.849800 L 98.770000 277.173200 L 99.488200 277.475100 L 100.227900 277.755400 L 100.989100 278.014100 L 101.771900 278.251300 L 102.576300 278.466900 L 103.402200 278.661000 L 104.249700 278.833500 L 105.118800 278.984400 L 106.009400 279.113800 L 106.921600 279.221600 L 107.855400 279.307900 L 108.810700 279.372600 L 109.787500 279.415700 L 110.786000 279.437300 L 111.293300 279.440000 L 112.067100 279.433400 L 113.577400 279.380900 L 115.038000 279.275900 L 116.448900 279.118400 L 117.810200 278.908400 L 119.121800 278.645900 L 120.383600 278.330900 L 121.595800 277.963400 L 122.758300 277.543400 L 123.871100 277.070900 L 124.934300 276.545900 L 125.947700 275.968400 L 126.911400 275.338400 L 127.825500 274.655900 L 128.689900 273.920900 L 129.504600 273.133400 L 129.893300 272.719900 L 130.272200 272.293900 L 131.008100 271.405100 L 131.715000 270.467600 L 132.392800 269.481400 L 133.041500 268.446400 L 133.661200 267.362600 L 134.251800 266.230100 L 134.813400 265.048900 L 135.345900 263.818900 L 135.849300 262.540100 L 136.323700 261.212600 L 136.769000 259.836400 L 137.185300 258.411400 L 137.572500 256.937600 L 137.930600 255.415100 L 138.259700 253.843900 L 138.413300 253.039900 Z M 16.000000 16.000000 L 16.000000 140.079900 L 48.160000 140.079900 L 48.160000 123.280000 L 48.639900 123.280000 L 49.062600 123.875700 L 49.924200 125.042000 L 50.807300 126.174500 L 51.712000 127.273200 L 52.638300 128.338200 L 53.586100 129.369500 L 54.555500 130.367000 L 55.546400 131.330700 L 56.558900 132.260700 L 57.593000 133.157000 L 58.648600 134.019500 L 59.725800 134.848200 L 60.824500 135.643200 L 61.944800 136.404500 L 63.086700 137.132000 L 64.250100 137.825700 L 64.840000 138.160000 L 65.435100 138.484800 L 66.641700 139.103500 L 67.869800 139.681000 L 69.119500 140.217300 L 70.390800 140.712300 L 71.683600 141.166000 L 72.998000 141.578500 L 74.333900 141.949800 L 75.691400 142.279800 L 77.070500 142.568500 L 78.471100 142.816000 L 79.893300 143.022300 L 81.337000 143.187300 L 82.802300 143.311000 L 84.289200 143.393500 L 85.797600 143.434800 L 86.560000 143.440000 L 87.293000 143.435500 L 88.747000 143.399900 L 90.185100 143.328600 L 91.607300 143.221700 L 93.013600 143.079200 L 94.403900 142.901100 L 95.778300 142.687400 L 97.136700 142.438000 L 98.479200 142.153000 L 99.805800 141.832400 L 101.116400 141.476100 L 102.411100 141.084200 L 103.689800 140.656700 L 104.952600 140.193600 L 106.199500 139.694900 L 107.430500 139.160500 L 108.040000 138.880000 L 108.642900 138.588200 L 109.821300 137.963800 L 110.963200 137.285000 L 112.068500 136.551900 L 113.137300 135.764400 L 114.169400 134.922500 L 115.165100 134.026300 L 116.124100 133.075700 L 117.046600 132.070700 L 117.932600 131.011300 L 118.781900 129.897500 L 119.594800 128.729400 L 120.371000 127.506900 L 121.110700 126.230000 L 121.813800 124.898800 L 122.480400 123.513200 L 122.800000 122.800000 L 123.148800 123.308100 L 123.869800 124.313100 L 124.621600 125.303100 L 125.404400 126.278100 L 126.218200 127.238100 L 127.062900 128.183100 L 127.938500 129.113100 L 128.845100 130.028100 L 129.782600 130.928100 L 130.751000 131.813100 L 131.750400 132.683100 L 132.780700 133.538100 L 133.841900 134.378100 L 134.934100 135.203100 L 136.057300 136.013100 L 137.211300 136.808100 L 137.800000 137.200000 L 138.395800 137.583900 L 139.608000 138.315100 L 140.847400 138.997600 L 142.114000 139.631400 L 143.407700 140.216400 L 144.728700 140.752600 L 146.076800 141.240100 L 147.452100 141.678900 L 148.854600 142.068900 L 150.284300 142.410100 L 151.741200 142.702600 L 153.225200 142.946400 L 154.736500 143.141400 L 156.274900 143.287600 L 157.840500 143.385100 L 159.433300 143.433900 L 160.240000 143.440000 L 160.853500 143.437600 L 162.072300 143.418900 L 163.279800 143.381400 L 164.476000 143.325100 L 165.661000 143.250100 L 166.834800 143.156400 L 167.997300 143.043900 L 169.148500 142.912600 L 170.288500 142.762600 L 171.417300 142.593900 L 172.534800 142.406400 L 173.641000 142.200100 L 174.736000 141.975100 L 175.819800 141.731400 L 176.892300 141.468900 L 177.953500 141.187600 L 178.480000 141.040000 L 179.002600 140.887100 L 180.033900 140.564600 L 181.046400 140.219600 L 182.040100 139.852100 L 183.015100 139.462100 L 183.971400 139.049600 L 184.908900 138.614600 L 185.827600 138.157100 L 186.727600 137.677100 L 187.608900 137.174600 L 188.471400 136.649600 L 189.315100 136.102100 L 190.140100 135.532100 L 190.946400 134.939600 L 191.733900 134.324600 L 192.502600 133.687100 L 192.880000 133.360000 L 193.252400 133.026800 L 193.981700 132.341500 L 194.690500 131.630800 L 195.378600 130.894900 L 196.046100 130.133700 L 196.693000 129.347100 L 197.319200 128.535200 L 197.924900 127.698000 L 198.509900 126.835500 L 199.074200 125.947700 L 199.618000 125.034600 L 200.141100 124.096200 L 200.643600 123.132400 L 201.125500 122.143300 L 201.586700 121.129000 L 202.027400 120.089300 L 202.240000 119.560000 L 202.446700 119.024100 L 202.840400 117.931900 L 203.207900 116.812500 L 203.549200 115.665900 L 203.864200 114.492200 L 204.152900 113.291200 L 204.415400 112.063100 L 204.651700 110.807800 L 204.861700 109.525300 L 205.045400 108.215600 L 205.202900 106.878700 L 205.334200 105.514700 L 205.439200 104.123400 L 205.517900 102.705000 L 205.570400 101.259400 L 205.596700 99.786600 L 205.599900 99.040000 L 205.599900 16.000000 L 171.520000 16.000000 L 171.520000 86.320000 L 171.518100 87.097100 L 171.503100 88.634600 L 171.473100 90.149600 L 171.428100 91.642100 L 171.368100 93.112100 L 171.293100 94.559600 L 171.203100 95.984600 L 171.098100 97.387100 L 171.039900 98.079900 L 170.973400 98.764300 L 170.800900 100.099300 L 170.575900 101.389300 L 170.298400 102.634300 L 169.968400 103.834300 L 169.585900 104.989300 L 169.150900 106.099300 L 168.663400 107.164300 L 168.400000 107.680000 L 168.122000 108.183400 L 167.518200 109.150900 L 166.850700 110.065900 L 166.119500 110.928400 L 165.324500 111.738400 L 164.465700 112.495900 L 163.543200 113.200900 L 162.557000 113.853400 L 162.040000 114.160000 L 161.774500 114.307600 L 161.226100 114.588900 L 160.654200 114.851400 L 160.058900 115.095100 L 159.440100 115.320100 L 158.798000 115.526400 L 158.132300 115.713900 L 157.443300 115.882600 L 156.730800 116.032600 L 155.994800 116.163900 L 155.235500 116.276400 L 154.452600 116.370100 L 153.646400 116.445100 L 152.816700 116.501400 L 151.963600 116.538900 L 151.087000 116.557600 L 150.639900 116.560000 L 150.192600 116.557300 L 149.314200 116.535700 L 148.457300 116.492600 L 147.622000 116.427900 L 146.808300 116.341600 L 146.016100 116.233800 L 145.245500 116.104400 L 144.496400 115.953500 L 143.768900 115.781000 L 143.063000 115.586900 L 142.378600 115.371300 L 141.715800 115.134100 L 141.074500 114.875400 L 140.454800 114.595100 L 139.856700 114.293200 L 139.280100 113.969800 L 139.000000 113.800000 L 138.452400 113.448400 L 137.402400 112.705900 L 136.412500 111.910900 L 135.482500 111.063400 L 134.612500 110.163400 L 133.802500 109.210900 L 133.052500 108.205900 L 132.362500 107.148400 L 132.040000 106.600000 L 131.731500 106.040300 L 131.154000 104.892800 L 130.629000 103.707800 L 130.156500 102.485300 L 129.736500 101.225300 L 129.369000 99.927800 L 129.054000 98.592800 L 128.791500 97.220300 L 128.680000 96.519900 L 128.578200 95.814500 L 128.394500 94.400700 L 128.237000 92.983200 L 128.105700 91.562000 L 128.000700 90.137000 L 127.922000 88.708200 L 127.869500 87.275700 L 127.843200 85.839500 L 127.839900 85.120000 L 127.839900 16.000000 L 93.760000 16.000000 L 93.760000 85.600000 L 93.756200 86.978100 L 93.726200 89.723100 L 93.666200 92.453100 L 93.576200 95.168100 L 93.519900 96.519900 L 93.483900 97.191700 L 93.375100 98.515400 L 93.217600 99.812900 L 93.011400 101.084200 L 92.756400 102.329200 L 92.452600 103.547900 L 92.100100 104.740400 L 91.698900 105.906700 L 91.480000 106.480000 L 91.365100 106.763200 L 91.121400 107.319100 L 90.858900 107.861000 L 90.577600 108.388800 L 90.277600 108.902600 L 89.958900 109.402300 L 89.621400 109.887900 L 89.265100 110.359400 L 88.890100 110.816900 L 88.496400 111.260400 L 88.083900 111.689800 L 87.652600 112.105100 L 87.202600 112.506300 L 86.733900 112.893500 L 86.246400 113.266600 L 85.740100 113.625700 L 85.480000 113.800000 L 85.213600 113.969800 L 84.657600 114.293200 L 84.070800 114.595100 L 83.453000 114.875400 L 82.804200 115.134100 L 82.124500 115.371300 L 81.413900 115.586900 L 80.672300 115.781000 L 79.899800 115.953500 L 79.096400 116.104400 L 78.262000 116.233800 L 77.396700 116.341600 L 76.500500 116.427900 L 75.573300 116.492600 L 74.615100 116.535700 L 73.626100 116.557300 L 73.120000 116.560000 L 72.813900 116.555700 L 72.165100 116.522000 L 71.467600 116.454500 L 70.721400 116.353200 L 69.926400 116.218200 L 69.082600 116.049500 L 68.190100 115.847000 L 67.248900 115.610700 L 66.760000 115.480000 L 66.265900 115.337400 L 65.283400 115.007500 L 64.308400 114.617500 L 63.340900 114.167500 L 62.380900 113.657400 L 61.428400 113.087400 L 60.483400 112.457400 L 59.545900 111.767400 L 59.080000 111.399900 L 58.848500 111.209900 L 58.391900 110.814200 L 57.943800 110.398000 L 57.504100 109.961100 L 57.072900 109.503600 L 56.650100 109.025500 L 56.235700 108.526700 L 55.829800 108.007400 L 55.432300 107.467400 L 55.043200 106.906700 L 54.662600 106.325500 L 54.290400 105.723600 L 53.926600 105.101100 L 53.571300 104.458000 L 53.224400 103.794200 L 52.886000 103.109900 L 52.720000 102.760000 L 52.557500 102.404100 L 52.248200 101.671900 L 51.959400 100.912500 L 51.691300 100.125900 L 51.443800 99.312200 L 51.216900 98.471200 L 51.010700 97.603100 L 50.825000 96.707800 L 50.660000 95.785300 L 50.515700 94.835600 L 50.391900 93.858700 L 50.288800 92.854700 L 50.206300 91.823400 L 50.144400 90.765000 L 50.103200 89.679400 L 50.082500 88.566600 L 50.080000 88.000000 L 50.080000 16.000000 Z" transform="scale(1.000000,1.000000) translate(49.000000,48.560000)" fill="#071e10" opacity="1.000000"></path>
    </g>
</svg>