<?xml version="1.0" encoding="UTF-8" standalone="yes"?>
<!DOCTYPE svg PUBLIC "-//W3C//DTD SVG 1.1//EN" "http://www.w3.org/Graphics/SVG/1.1/DTD/svg11.dtd">

<svg width="304" height="169" viewBox="0 0 304 169" xmlns="http://www.w3.org/2000/svg" xmlns:xlink="http://www.w3.org/1999/xlink" version="1.1" baseProfile="full">
    <g transform="scale(1.000000,-1.000000) translate(0,-169)">
        <path d="M 1.000000 1.000000 L 305.000000 1.000000 L 305.000000 170.000000 L 1.000000 170.000000 Z" transform="scale(1.000000,1.000000) translate(-1.000000,-1.000000)" fill="#000000" opacity="1.000000"></path>
        <path d="M 1.000000 11.000000 L 235.366576 11.000000 L 235.366576 1.000000 L 1.000000 1.000000 L 1.000000 11.000000 Z" transform="scale(1.000000,1.000000) translate(34.000000,34.077148)" fill="#ffffff" opacity="1.000000"></path>
        <path d="M 1.000000 11.000000 L 235.366576 11.000000 L 235.366576 1.000000 L 1.000000 1.000000 L 1.000000 11.000000 Z" transform="scale(1.000000,1.000000) translate(34.000000,123.554688)" fill="#ffffff" opacity="1.000000"></path>
        <path d="M 35.942748 18.885742 Q 35.942748 22.313477 33.701537 24.137207 Q 31.460326 25.960938 25.571654 28.026367 Q 13.662475 31.893555 7.883666 36.266113 Q 2.104857 40.638672 2.104857 48.856445 Q 2.104857 56.898438 8.828490 61.864258 Q 15.552123 66.830078 25.923217 66.830078 Q 36.865600 66.830078 43.545287 61.710449 Q 50.224975 56.590820 50.005248 47.274414 L 49.917357 47.010742 L 35.503295 47.010742 Q 35.503295 51.537109 33.042357 53.580566 Q 30.581420 55.624023 25.615600 55.624023 Q 21.572631 55.624023 19.243529 53.646484 Q 16.914428 51.668945 16.914428 48.768555 Q 16.914428 45.956055 19.309447 44.264160 Q 21.704467 42.572266 28.252318 40.023438 Q 39.370482 36.727539 45.083373 31.981445 Q 50.796264 27.235352 50.796264 18.973633 Q 50.796264 10.536133 44.204467 5.768066 Q 37.612670 1.000000 26.714232 1.000000 Q 15.859740 1.000000 8.323119 6.119629 Q 0.786498 11.239258 1.006225 22.225586 L 1.094115 22.489258 L 15.552123 22.489258 Q 15.552123 16.908203 18.298705 14.557129 Q 21.045287 12.206055 26.714232 12.206055 Q 31.372435 12.206055 33.657592 14.051758 Q 35.942748 15.897461 35.942748 18.885742 Z M 85.469115 1.966797 Q 84.634154 3.460938 84.040893 5.350586 Q 83.447631 7.240234 83.140014 9.305664 Q 81.206420 5.526367 78.371947 3.263184 Q 75.537475 1.000000 70.967162 1.000000 Q 63.496459 1.000000 59.343627 4.845215 Q 55.190795 8.690430 55.190795 15.326172 Q 55.190795 22.401367 60.508178 26.246582 Q 65.825560 30.091797 76.636107 30.091797 L 82.744506 30.091797 L 82.744506 33.475586 Q 82.744506 36.507812 81.294310 38.133789 Q 79.844115 39.759766 76.855834 39.759766 Q 74.263060 39.759766 73.010619 38.551270 Q 71.758178 37.342773 71.758178 34.793945 L 57.344115 34.837891 L 57.256225 35.101562 Q 56.948607 41.605469 62.683471 45.978027 Q 68.418334 50.350586 77.822631 50.350586 Q 86.655639 50.350586 92.126830 45.956055 Q 97.598021 41.561523 97.598021 33.387695 L 97.598021 15.458008 Q 97.598021 11.678711 98.235228 8.426758 Q 98.872435 5.174805 100.146850 1.922852 Z M 75.010131 11.590820 Q 77.734740 11.590820 79.822143 12.865234 Q 81.909545 14.139648 82.744506 15.897461 L 82.744506 22.181641 L 76.767943 22.181641 Q 73.208373 22.181641 71.626342 20.467773 Q 70.044310 18.753906 70.044310 16.117188 Q 70.044310 14.095703 71.428588 12.843262 Q 72.812865 11.590820 75.010131 11.590820 Z M 122.778685 61.292969 L 122.778685 49.471680 L 130.293334 49.471680 L 130.293334 39.188477 L 122.778685 39.188477 L 122.778685 17.391602 Q 122.778685 14.842773 123.811400 13.722168 Q 124.844115 12.601562 126.601928 12.601562 Q 127.744506 12.601562 128.425658 12.689453 Q 129.106810 12.777344 130.161498 13.041016 L 131.172240 2.054688 Q 128.931029 1.483398 127.129271 1.241699 Q 125.327514 1.000000 122.866576 1.000000 Q 115.527709 1.000000 111.726439 4.911133 Q 107.925170 8.822266 107.925170 17.303711 L 107.925170 39.188477 L 101.289428 39.188477 L 101.289428 49.471680 L 107.925170 49.471680 L 107.925170 61.292969 Z M 135.522826 26.136719 Q 135.522826 36.859375 141.587279 43.604980 Q 147.651732 50.350586 158.506225 50.350586 Q 169.404662 50.350586 175.469115 43.604980 Q 181.533568 36.859375 181.533568 26.136719 L 181.533568 25.213867 Q 181.533568 14.447266 175.469115 7.723633 Q 169.404662 1.000000 158.594115 1.000000 Q 147.651732 1.000000 141.587279 7.723633 Q 135.522826 14.447266 135.522826 25.213867 Z M 150.376342 25.213867 Q 150.376342 19.237305 152.244018 15.831543 Q 154.111693 12.425781 158.594115 12.425781 Q 162.944701 12.425781 164.834350 15.853516 Q 166.723998 19.281250 166.723998 25.213867 L 166.723998 26.136719 Q 166.723998 31.937500 164.834350 35.431152 Q 162.944701 38.924805 158.506225 38.924805 Q 154.111693 38.924805 152.244018 35.409180 Q 150.376342 31.893555 150.376342 26.136719 Z M 214.360717 36.815430 L 209.526732 36.859375 Q 206.977904 36.859375 205.351928 35.914551 Q 203.725951 34.969727 202.934935 33.255859 L 202.934935 1.922852 L 188.081420 1.922852 L 188.081420 49.471680 L 202.056029 49.471680 L 202.583373 42.484375 Q 204.077514 46.219727 206.538451 48.285156 Q 208.999389 50.350586 212.295287 50.350586 Q 213.306029 50.350586 214.097045 50.218750 Q 214.888060 50.086914 215.766967 49.823242 Z M 235.366576 1.922852 L 220.469115 1.922852 L 220.469115 49.471680 L 235.366576 49.471680 Z M 235.366576 60.501953 L 220.469115 60.501953 L 220.469115 70.477539 L 235.366576 70.477539 Z" transform="scale(1.000000,1.000000) translate(34.000000,49.077148)" fill="#ffffff" opacity="1.000000"></path>
    </g>
</svg>